<?xml version="1.0" standalone="no"?>
<!DOCTYPE svg PUBLIC "-//W3C//DTD SVG 20010904//EN"
 "http://www.w3.org/TR/2001/REC-SVG-20010904/DTD/svg10.dtd">
<svg version="1.0" xmlns="http://www.w3.org/2000/svg"
 width="400.000000pt" height="400.000000pt" viewBox="0 0 400.000000 400.000000"
 preserveAspectRatio="xMidYMid meet">

<g transform="translate(0.000000,400.000000) scale(0.100000,-0.100000)"
fill="#000000" stroke="none">
<path d="M1806 3594 c-96 -19 -158 -40 -257 -89 -234 -115 -417 -297 -529
-529 -27 -56 -59 -139 -72 -186 -22 -85 -22 -86 -25 -1129 l-4 -1045 98 -98
98 -98 5 1127 5 1128 23 80 c96 331 337 572 657 656 113 29 299 29 410 0 383
-101 655 -429 690 -831 13 -144 -34 -349 -111 -487 -115 -206 -320 -370 -544
-433 -107 -31 -281 -38 -389 -16 -46 9 -84 16 -85 14 -2 -2 -15 -39 -31 -83
-15 -44 -30 -85 -32 -91 -3 -8 30 -18 92 -29 131 -24 373 -16 490 15 99 27
267 105 350 165 240 171 403 437 445 724 17 114 8 322 -19 431 -28 110 -114
286 -191 388 -157 209 -395 362 -644 413 -109 22 -325 24 -430 3z"/>
</g>
</svg>
